<svg xmlns="http://www.w3.org/2000/svg" viewBox="0 0 64 64" role="img" aria-label="MATH 235B">
  <title>MATH 235B</title>
  <rect width="64" height="64" rx="13" fill="#a8452c"/>
  <path fill="#f4f3ee" d="M6.55 48.02Q8.3 44.45 9.7 41.57Q11.1 38.69 12.12 36.31Q13.13 33.92 13.84 31.89Q14.56 29.86 14.89 28Q15.22 26.13 15.27 24.21Q15.32 22.13 15.13 20.54Q14.94 18.95 14.5 17.85Q14.06 16.75 13.35 16.18Q12.64 15.6 11.59 15.6Q10.83 15.6 10.14 16.07Q9.46 16.53 8.88 17.38Q8.3 18.23 7.81 19.44Q7.59 20.32 7.56 20.7Q7.54 21.08 7.76 21.52L7.65 21.91L7.1 21.74L6 21.52Q6.55 19.38 7.29 17.82Q8.03 16.26 9.1 15.38Q10.17 14.5 11.59 14.5Q13.41 14.5 14.47 15.52Q15.54 16.53 16.01 18.67Q16.48 20.81 16.48 24.27Q16.48 26.13 16.04 28.22Q15.6 30.3 14.78 32.55Q13.95 34.8 12.88 37.24Q11.81 39.68 10.55 42.31Q9.29 44.95 7.92 47.8H14.17Q15.11 47.8 15.49 47.69Q15.87 47.58 16.2 47.25H16.59V47.8V48.89H6.55ZM24.81 49.5Q22.89 49.5 21.74 48.21Q20.59 46.92 19.66 45L20.7 44.51L21.08 44.34L21.25 44.73Q21.03 44.95 21.17 45.27Q21.3 45.6 21.74 46.43Q22.35 47.3 23.09 47.85Q23.83 48.4 24.7 48.4Q26.08 48.4 27.01 47.3Q27.94 46.21 28.43 44.2Q28.93 42.2 28.93 39.35Q28.93 37.38 28.52 35.87Q28.11 34.36 27.34 33.34Q26.57 32.33 25.47 31.86Q24.38 31.4 22.95 31.62V30.46Q24.38 30.46 25.39 29.78Q26.41 29.09 27.06 27.97Q27.72 26.84 28.05 25.5Q28.38 24.16 28.38 22.84Q28.38 21.03 28.13 19.66Q27.89 18.29 27.39 17.38Q26.9 16.48 26.21 16.04Q25.53 15.6 24.7 15.6Q24.05 15.6 23.36 16.09Q22.68 16.59 22.13 17.46Q21.58 18.34 21.19 19.6L20.15 19.05Q21.03 16.92 22.15 15.71Q23.28 14.5 24.92 14.5Q26.35 14.5 27.39 15.43Q28.43 16.37 29.01 18.26Q29.59 20.15 29.59 23Q29.59 24.76 29.07 26.38Q28.54 28 27.67 29.15Q26.79 30.3 25.75 30.79Q27.12 31.23 28.08 32.41Q29.04 33.59 29.59 35.37Q30.14 37.16 30.14 39.51Q30.14 42.64 29.5 44.89Q28.87 47.14 27.67 48.32Q26.46 49.5 24.81 49.5ZM38.8 49.5Q37.27 49.5 35.78 48.4Q34.3 47.3 33.43 44.78L34.36 44.23L34.69 44.07L34.85 44.4Q34.74 44.62 34.82 45Q34.91 45.38 35.29 46.15Q36.06 47.3 36.96 47.85Q37.87 48.4 38.91 48.4Q40.01 48.4 40.78 47.77Q41.54 47.14 42.01 45.85Q42.48 44.56 42.72 42.61Q42.97 40.67 42.97 38.03Q42.97 35.46 42.7 33.73Q42.42 32 41.87 30.99Q41.32 29.97 40.58 29.53Q39.84 29.09 38.91 29.09Q38.31 29.09 37.65 29.5Q36.99 29.92 36.39 30.66Q35.78 31.4 35.35 32.44L34.3 32.11L34.85 14.72H43.52V15.82H36.06L35.51 30.14Q35.95 29.42 36.55 28.96Q37.16 28.49 37.84 28.24Q38.53 28 39.24 28Q40.28 28 41.16 28.52Q42.04 29.04 42.72 30.22Q43.41 31.4 43.79 33.34Q44.18 35.29 44.18 38.14Q44.18 41.98 43.63 44.48Q43.08 46.97 41.9 48.24Q40.72 49.5 38.8 49.5ZM47.19 48.89V14.72H51.86Q52.95 14.72 53.94 15.11Q54.93 15.49 55.67 16.39Q56.41 17.3 56.85 18.84Q57.29 20.37 57.29 22.68Q57.29 25.31 56.85 26.84Q56.41 28.38 55.67 29.18Q54.93 29.97 54 30.52Q54.76 30.9 55.48 31.62Q56.19 32.33 56.77 33.43Q57.34 34.52 57.67 36Q58 37.49 58 39.3Q58 41.76 57.64 43.57Q57.29 45.38 56.52 46.56Q55.75 47.74 54.57 48.32Q53.39 48.89 51.8 48.89ZM48.4 47.8H52.13Q53.67 47.8 54.71 46.92Q55.75 46.04 56.3 44.12Q56.85 42.2 56.85 39.08Q56.85 36.94 56.24 35.1Q55.64 33.26 54.49 32.14Q53.34 31.01 51.69 31.01H48.4ZM48.4 29.92H51.58Q52.95 29.92 54 29.23Q55.04 28.54 55.64 27.04Q56.24 25.53 56.24 23.11Q56.24 20.86 55.86 19.44Q55.48 18.01 54.87 17.22Q54.27 16.42 53.47 16.12Q52.68 15.82 51.86 15.82H48.4Z"/>
</svg>
